<svg width="188" height="34" viewBox="0 0 188 34" fill="none" xmlns="http://www.w3.org/2000/svg">
    <path fill-rule="evenodd" clip-rule="evenodd"
        d="M140.132 25.9964C140.968 30.6298 145.384 33.9997 151.07 33.9997C157.134 33.9997 161.977 30.1902 161.977 24.3401C161.977 18.1406 156.74 16.5172 152.231 15.1192C148.825 14.0633 145.834 13.137 145.834 10.4623C145.834 8.01311 148.147 6.47145 150.852 6.47145C153.185 6.47145 155.071 7.58753 155.803 9.25039C156.164 10.0696 156.86 10.8249 157.76 10.8249H159.825C160.724 10.8249 161.47 10.0931 161.307 9.21375C160.484 4.77853 156.289 1.61816 150.939 1.61816C145.136 1.61816 140.512 5.24638 140.512 10.87C140.512 16.9127 145.689 18.6253 150.171 20.1087C153.593 21.2408 156.611 22.2395 156.611 24.9291C156.611 27.4234 154.167 29.1464 151.114 29.1464C148.515 29.1464 146.383 27.8584 145.616 25.9654C145.281 25.1358 144.582 24.3852 143.682 24.3852H141.617C140.718 24.3852 139.973 25.1161 140.132 25.9964ZM166.048 25.9964C166.884 30.6298 171.301 33.9997 176.986 33.9997C183.05 33.9997 187.893 30.1902 187.893 24.3401C187.893 18.1406 182.656 16.5172 178.147 15.1192C174.741 14.0633 171.751 13.137 171.751 10.4623C171.751 8.01311 174.063 6.47145 176.768 6.47145C179.101 6.47145 180.988 7.58753 181.719 9.25039C182.08 10.0696 182.776 10.8249 183.676 10.8249H185.741C186.641 10.8249 187.386 10.0931 187.223 9.21375C186.4 4.77853 182.205 1.61816 176.855 1.61816C171.053 1.61816 166.428 5.24638 166.428 10.87C166.428 16.9127 171.605 18.6253 176.087 20.1087C179.509 21.2408 182.527 22.2395 182.527 24.9291C182.527 27.4234 180.083 29.1464 177.03 29.1464C174.431 29.1464 172.299 27.8584 171.532 25.9654C171.197 25.1358 170.498 24.3852 169.599 24.3852H167.534C166.634 24.3852 165.889 25.1161 166.048 25.9964ZM129.177 33.1899C128.282 33.1899 127.557 32.4655 127.557 31.5712V4.04762C127.557 3.15325 128.282 2.42892 129.177 2.42892H132.011C132.905 2.42892 133.631 3.15419 133.631 4.04762V31.5712C133.631 32.4655 132.905 33.1899 132.011 33.1899H129.177ZM60.0779 30.9042L72.5775 3.38154C72.8405 2.80189 73.4211 2.42892 74.06 2.42892H79.817C80.4568 2.42892 81.0365 2.80189 81.2995 3.38154L93.7991 30.9051C94.2858 31.977 93.4985 33.1908 92.3166 33.1908H89.3385C88.6997 33.1908 88.12 32.8188 87.856 32.2401L76.9385 8.24986L66.021 32.2401C65.7579 32.8188 65.1773 33.1908 64.5385 33.1908H61.5604C60.3785 33.1908 59.5913 31.977 60.0779 30.9051V30.9042ZM110.458 32.2382L122.148 4.71465C122.634 3.64271 121.846 2.42892 120.664 2.42892H117.686C117.047 2.42892 116.467 2.80095 116.204 3.37966L106.096 27.3699L95.9881 3.37966C95.7241 2.80001 95.1444 2.42892 94.5056 2.42892H91.5275C90.3456 2.42892 89.5584 3.64271 90.045 4.71465L101.735 32.2382C101.998 32.8178 102.578 33.1908 103.218 33.1908H108.975C109.615 33.1908 110.195 32.8178 110.459 32.2382H110.458ZM77.7493 23.5181C77.3988 22.9224 76.48 22.9224 76.1296 23.5181L72.2036 31.4462C71.8532 32.0418 72.291 32.7859 72.9927 32.7859H80.8861C81.5879 32.7859 82.0267 32.0418 81.6753 31.4462L77.7493 23.5181Z"
        fill="#222222"></path>
    <path
        d="M47.5641 21.8035L41.3571 15.5993C39.9854 14.2286 37.7627 14.2286 36.391 15.5993L30.184 21.8035C28.8124 23.1742 28.8124 25.3961 30.184 26.7667L36.391 32.971C37.7627 34.3417 39.9854 34.3417 41.3571 32.971L47.5641 26.7667C48.9357 25.3961 48.9357 23.1742 47.5641 21.8035Z"
        fill="#0DB1E8"></path>
    <path
        d="M18.4088 21.8035L12.2018 15.5993C10.8302 14.2286 8.60739 14.2286 7.23577 15.5993L1.02872 21.8035C-0.342905 23.1742 -0.342905 25.3961 1.02872 26.7667L7.23577 32.971C8.60739 34.3417 10.8302 34.3417 12.2018 32.971L18.4088 26.7667C19.7805 25.3961 19.7805 23.1742 18.4088 21.8035Z"
        fill="#2470E9"></path>
    <path
        d="M21.4501 1.1788C23.0218 -0.392932 25.5715 -0.392932 27.1433 1.1788L32.8364 6.86914C34.4082 8.44087 34.4082 10.9878 32.8364 12.5595L27.1433 18.2498C25.5715 19.8216 23.0218 19.8216 21.4501 18.2498L15.7569 12.5595C14.1852 10.9878 14.1852 8.44087 15.7569 6.86914L21.4501 1.1788Z"
        fill="#00C1A7"></path>
</svg>